<svg width="320" height="83" viewBox="0 0 320 83" fill="none" xmlns="http://www.w3.org/2000/svg">
<path d="M26.125 37.3137C30.481 38.3097 32.595 39.8007 32.471 42.7867C32.471 46.1467 29.238 48.5097 24.882 48.6327C19.285 49.0067 14.556 45.3997 14.182 41.2937H0C0.373 53.7357 11.943 60.8257 23.389 60.8257C35.458 60.8257 47.15 54.8557 47.15 42.9127C47.15 38.1837 45.41 29.2277 31.974 25.4947L22.269 23.1317C18.912 22.2617 16.172 20.6417 16.172 18.2787C16.172 13.9257 19.658 12.5557 23.515 12.5557C26.998 12.5557 30.978 14.1747 31.351 18.5287H45.783C45.16 5.21574 34.214 0.239746 23.142 0.239746C11.696 0.239746 1.743 8.07874 1.743 17.5317C1.743 24.2507 3.11 31.3407 18.165 35.3237L26.125 37.3137Z" fill="#474747"/>
<path fill-rule="evenodd" clip-rule="evenodd" d="M64.168 83.0007L75.473 55.1097L52.8311 1.48975H69.003L83.436 37.6937L97.991 1.48975H114.164L80.27 83.0007H64.168Z" fill="#474747"/>
<path d="M140.249 28.6047C140.249 18.5287 145.972 15.0457 152.938 15.0457C159.531 15.0457 164.011 19.5217 164.011 27.9847V59.5827H179.19V25.2447C179.19 8.69974 171.103 0.239746 157.541 0.239746C150.698 0.239746 143.609 3.72274 140.249 10.0687V1.48274H125.07V59.5827H140.249V28.6047Z" fill="#474747"/>
<path d="M248.779 30.108C248.779 11.696 235.716 0 219.294 0C202.748 0 189.186 11.696 189.186 30.108C189.186 48.3929 202.748 60.5859 219.294 60.5859C229.993 60.5859 241.066 56.4829 246.415 46.53C242.559 44.537 238.453 42.3 234.843 40.307C231.983 45.284 226.137 47.773 220.287 47.773C211.704 47.773 205.235 43.17 204.238 35.331H248.529C248.652 33.964 248.779 31.601 248.779 30.108ZM204.115 25.005C205.235 17.045 211.455 12.689 219.417 12.689C226.883 12.689 232.853 17.045 233.973 25.005H204.115Z" fill="#474747"/>
<path d="M319.97 47.3914L272.594 0.0151367L257.392 15.2177L304.768 62.5939L319.97 47.3914Z" fill="#474747"/>
<path d="M304.796 0.0136743L257.419 47.3899L272.622 62.5924L319.998 15.2162L304.796 0.0136743Z" fill="url(#paint0_linear_281_3)"/>
<defs>
<linearGradient id="paint0_linear_281_3" x1="272.238" y1="62.2089" x2="319.996" y2="15.2144" gradientUnits="userSpaceOnUse">
<stop stop-color="#474747"/>
<stop offset="1" stop-color="#F2641F"/>
</linearGradient>
</defs>
</svg>
